<svg width="62" height="32" viewBox="0 0 62 32" fill="none" xmlns="http://www.w3.org/2000/svg">
<path d="M0 13.726C0.117424 13.9021 0.352271 14.2544 0.71922 14.7534L1.96685 16.5001C2.45122 17.1606 2.96495 17.8652 3.43464 18.6137C3.90434 19.3623 4.47678 20.0815 4.90244 20.7127L6.12071 22.4153C6.48766 22.8997 6.7225 23.2079 6.82525 23.3694L7.33898 22.841C7.54447 22.5621 7.79399 22.2245 8.08755 21.7989L9.11501 20.3311L10.2746 18.7605C10.6856 18.2028 11.0819 17.645 11.4635 17.1019C11.8451 16.5588 12.2121 16.0598 12.5497 15.6341C12.8872 15.2085 13.1661 14.7828 13.3863 14.4452L13.9 13.7407V28.1691H11.6396V20.4191C11.633 20.3116 11.633 20.2038 11.6396 20.0962C11.6511 20.0134 11.6511 19.9295 11.6396 19.8467L11.0965 20.6393L10.2746 21.8722C9.96633 22.3273 9.62874 22.8263 9.26179 23.34L8.24901 24.8078L7.41237 26.0261C7.17752 26.3784 7.00138 26.6132 6.91332 26.76L6.38491 26.0555C6.13538 25.6738 5.82715 25.2482 5.47488 24.7638C5.12261 24.2794 4.77034 23.7657 4.40339 23.2079L3.3319 21.7401L2.48057 20.5366C2.32463 20.336 2.18241 20.1251 2.05491 19.9054C2.05491 19.9054 2.05491 20.0375 2.05491 20.1549C2.0615 20.2625 2.0615 20.3703 2.05491 20.4778V28.1691H0V13.726Z" fill="#2B256C"/>
<path d="M15.7788 24.2647C15.7798 23.7168 15.8907 23.1747 16.105 22.6704C16.3193 22.1662 16.6327 21.7101 17.0264 21.3291C17.3987 20.9363 17.8419 20.6176 18.3328 20.3897C18.8438 20.1555 19.3998 20.0353 19.962 20.0375C20.6141 20.0541 21.2529 20.2251 21.8261 20.5365C22.031 20.6575 22.2186 20.8056 22.3839 20.9768C22.4962 21.0976 22.5946 21.2305 22.6774 21.3731L22.7508 20.2576H24.3067V28.169H22.6774V27.1563C22.5812 27.2839 22.4783 27.4064 22.3692 27.5232C22.2064 27.6851 22.0179 27.819 21.8114 27.9195C21.5639 28.0498 21.3031 28.1532 21.0335 28.2278C20.689 28.3204 20.3334 28.3649 19.9767 28.3598C19.398 28.3677 18.8237 28.2578 18.2887 28.0369C17.7975 27.8214 17.3498 27.518 16.9677 27.1416C16.5985 26.7566 16.3004 26.3094 16.087 25.8206C15.8824 25.3274 15.7776 24.7986 15.7788 24.2647ZM17.4227 24.162C17.4104 24.5286 17.4754 24.8936 17.6135 25.2334C17.8805 25.8526 18.3741 26.3462 18.9933 26.6132C19.3242 26.7465 19.6787 26.8114 20.0354 26.804C20.3855 26.8157 20.7342 26.7553 21.0599 26.6265C21.3857 26.4978 21.6814 26.3034 21.9288 26.0554C22.1653 25.8194 22.3546 25.5404 22.4866 25.2334C22.6112 24.9051 22.6758 24.5571 22.6774 24.206C22.6763 23.8596 22.6116 23.5163 22.4866 23.1932C22.3546 22.8862 22.1653 22.6073 21.9288 22.3712C21.6847 22.1454 21.4011 21.9662 21.0922 21.8428C20.7589 21.6987 20.3984 21.6286 20.0354 21.6373C19.677 21.6274 19.321 21.6976 18.9933 21.8428C18.6869 21.9627 18.4075 22.1424 18.1713 22.3712C17.94 22.6116 17.7514 22.8895 17.6135 23.1932C17.4872 23.5005 17.4223 23.8297 17.4227 24.162Z" fill="#2B256C"/>
<path d="M33.363 24.162C33.3669 23.8164 33.3072 23.4731 33.1869 23.1492C33.0761 22.8451 32.9065 22.5658 32.6878 22.3272C32.4653 22.1023 32.201 21.9228 31.9099 21.7988C31.5874 21.6533 31.2361 21.5831 30.8824 21.5933C30.5147 21.5848 30.1494 21.6548 29.8109 21.7988C29.5065 21.9223 29.2277 22.1015 28.989 22.3272C28.7577 22.5676 28.5691 22.8455 28.4312 23.1492C28.3062 23.4723 28.2415 23.8156 28.2404 24.162C28.242 24.5131 28.3067 24.8611 28.4312 25.1894C28.5612 25.4975 28.7508 25.7768 28.989 26.0114C29.2263 26.2463 29.505 26.4354 29.8109 26.5692C30.1377 26.6742 30.4809 26.719 30.8237 26.7013C31.1757 26.7087 31.5254 26.6438 31.8512 26.5105C32.1439 26.3762 32.408 26.1868 32.6291 25.9527C32.8478 25.7141 33.0174 25.4348 33.1282 25.1307C33.2611 24.8236 33.3405 24.4959 33.363 24.162ZM35.139 24.162C35.1441 24.7296 35.0395 25.2928 34.8308 25.8206C34.6316 26.3135 34.3373 26.7624 33.9648 27.1416C33.5854 27.521 33.1303 27.816 32.6291 28.0076C32.0967 28.2182 31.5283 28.3229 30.9558 28.3158C30.6435 28.3221 30.332 28.2825 30.0311 28.1984C29.7623 28.1414 29.5011 28.0527 29.2532 27.9342C29.0316 27.8209 28.8204 27.6883 28.622 27.5379C28.469 27.4058 28.3355 27.2526 28.2257 27.0829V27.2884C28.233 27.3518 28.233 27.4158 28.2257 27.4792V31.956H26.5965V20.2136H28.1817C28.1817 20.3604 28.1817 20.5512 28.1817 20.7861C28.1817 21.0209 28.1817 21.197 28.1817 21.3732C28.2978 21.2039 28.436 21.0508 28.5927 20.9182C28.7781 20.7517 28.9797 20.6042 29.1945 20.4778C29.4488 20.3328 29.7199 20.2195 30.0018 20.1402C30.3157 20.044 30.6421 19.9946 30.9705 19.9934C31.5383 19.9853 32.1021 20.0901 32.6291 20.3017C33.1207 20.4813 33.5667 20.767 33.9354 21.1383C34.3071 21.5126 34.5926 21.9634 34.7721 22.4593C35.0019 23.0137 35.1263 23.6061 35.139 24.206V24.162Z" fill="#2B256C"/>
<path d="M37.0912 13.726L37.7957 14.7534L39.058 16.5001L40.5258 18.6137L41.9936 20.7127C42.478 21.3585 42.8743 21.931 43.2266 22.4153L43.9311 23.3694C43.9311 23.296 44.0926 23.1345 44.2834 22.841C44.4742 22.5474 44.7384 22.2245 45.032 21.7989L46.0594 20.3311L47.2337 18.7018L48.4079 17.0432L49.4941 15.5754C49.8317 15.1204 50.1105 14.7241 50.3454 14.3865C50.5802 14.0489 50.7564 13.814 50.8591 13.6819V28.1691H48.7308V20.4191C48.7238 20.3116 48.7238 20.2037 48.7308 20.0962C48.7403 20.0133 48.7403 19.9296 48.7308 19.8467L48.173 20.6393L47.3217 21.8722L46.3089 23.34L45.2962 24.8078C44.9732 25.2629 44.6944 25.6738 44.4595 26.0261C44.2247 26.3784 44.0485 26.6132 43.9605 26.76L43.4174 26.0555C43.1679 25.6738 42.8596 25.2482 42.5073 24.7638L41.4065 23.2226L40.335 21.7548L39.469 20.5512C39.3154 20.3521 39.178 20.1411 39.058 19.9201C39.0523 20.0032 39.0523 20.0865 39.058 20.1696C39.0714 20.2768 39.0714 20.3853 39.058 20.4925V28.1691H37.0912V13.726Z" fill="#2B256C"/>
<path d="M55.6148 32H53.9708L54.4699 30.9432C54.6313 30.6056 54.7928 30.268 54.9396 29.9011C55.0864 29.5341 55.2772 29.1965 55.4386 28.8149C55.6001 28.4333 55.7909 28.0516 55.9964 27.6113L55.101 25.8206L54.1763 23.9125L53.2663 22.0043C52.9727 21.3683 52.6792 20.7665 52.3856 20.1989H54.1617C54.6167 21.0943 54.9983 21.8575 55.2919 22.4887C55.5854 23.1198 55.8349 23.6482 56.0258 24.1033C56.2166 24.5583 56.3927 24.9399 56.5101 25.2481C56.6276 25.5564 56.745 25.8646 56.833 26.1288C56.9358 25.8646 57.0385 25.5711 57.156 25.2481L57.6403 24.1033C57.8458 23.6482 58.0807 23.1052 58.3742 22.4887C58.6678 21.8722 59.0641 21.0209 59.5191 20.1989H61.2951L55.6148 32Z" fill="#2B256C"/>
<path d="M6.91332 2.0553C8.19555 2.06688 9.42155 2.5834 10.3255 3.49285C11.2295 4.40231 11.7386 5.63142 11.7424 6.91371C11.6949 7.61137 11.5156 8.2937 11.214 8.92459C10.7425 9.97432 10.1409 10.9606 9.42325 11.8602L6.91332 15.2214L4.40339 11.8895C3.68577 10.9899 3.08414 10.0037 2.61268 8.95394C2.29555 8.31672 2.10608 7.62364 2.05491 6.91371C2.05879 5.62637 2.57189 4.39286 3.48218 3.48257C4.39247 2.57228 5.62598 2.05918 6.91332 2.0553ZM6.91332 0.000389585C5.07979 0.000389585 3.32136 0.728755 2.02486 2.02525C0.728365 3.32175 0 5.08018 0 6.91371C0.0448828 7.88262 0.274034 8.83409 0.675186 9.7172C1.21071 10.9633 1.90112 12.137 2.7301 13.2105L6.91332 18.6854L11.0965 13.2105C11.9515 12.144 12.6621 10.9694 13.2102 9.7172C13.6235 8.8376 13.858 7.88466 13.9 6.91371C13.9001 5.99963 13.7189 5.09461 13.3668 4.25103C13.0148 3.40745 12.499 2.64205 11.8493 1.99912C11.1995 1.35619 10.4287 0.8485 9.58147 0.50542C8.73422 0.16234 7.82734 -0.00931401 6.91332 0.000389585Z" fill="#2B256C"/>
<path d="M6.91334 10.2749C6.24028 10.2807 5.58071 10.0861 5.01866 9.71575C4.4566 9.34543 4.01748 8.8162 3.75722 8.19546C3.49696 7.57473 3.42734 6.89058 3.55723 6.23014C3.68712 5.5697 4.01064 4.96287 4.48659 4.48692C4.96253 4.01098 5.56937 3.68746 6.2298 3.55757C6.89024 3.42768 7.57439 3.4973 8.19513 3.75755C8.81587 4.01781 9.34509 4.45693 9.71542 5.01899C10.0857 5.58105 10.2804 6.24061 10.2746 6.91367C10.2632 7.80159 9.90539 8.64992 9.27749 9.27782C8.64959 9.90572 7.80125 10.2635 6.91334 10.2749ZM6.91334 5.10829C6.56333 5.10833 6.22114 5.2118 5.92975 5.40568C5.63835 5.59957 5.41074 5.87523 5.27549 6.19805C5.14025 6.52087 5.10341 6.87646 5.16959 7.22015C5.23577 7.56384 5.40203 7.88032 5.64749 8.12983C5.89294 8.37934 6.20665 8.55076 6.54921 8.62257C6.89177 8.69438 7.24791 8.66337 7.5729 8.53344C7.8979 8.4035 8.17725 8.18044 8.37589 7.89226C8.57453 7.60408 8.68359 7.26363 8.68937 6.91367C8.68937 6.44264 8.50225 5.9909 8.16918 5.65783C7.83611 5.32476 7.38437 5.13764 6.91334 5.13764V5.10829Z" fill="#2B256C"/>
</svg>
